<svg width="32" height="32" viewBox="0 0 32 32" fill="none" xmlns="http://www.w3.org/2000/svg">
<g clip-path="url(#clip0_40_252)">
<path d="M8.39143 29.724C8.26408 29.847 8.1625 29.9941 8.09262 30.1568C8.02275 30.3194 7.98596 30.4944 7.98443 30.6714C7.98289 30.8485 8.01662 31.024 8.08366 31.1879C8.1507 31.3518 8.24971 31.5006 8.3749 31.6258C8.50009 31.751 8.64896 31.85 8.81282 31.9171C8.97668 31.9841 9.15226 32.0178 9.32929 32.0163C9.50633 32.0148 9.68129 31.978 9.84397 31.9081C10.0066 31.8382 10.1538 31.7367 10.2768 31.6093L21.1728 20.7133C22.4209 19.4623 23.1219 17.7672 23.1219 16C23.1219 14.2328 22.4209 12.5377 21.1728 11.2866L10.2768 0.39064C10.0253 0.147762 9.68849 0.0133699 9.33889 0.0164078C8.9893 0.0194457 8.65488 0.159671 8.40767 0.406882C8.16046 0.654093 8.02023 0.988509 8.01719 1.3381C8.01416 1.6877 8.14855 2.0245 8.39143 2.27597L19.2874 13.172C20.0373 13.9221 20.4586 14.9393 20.4586 16C20.4586 17.0606 20.0373 18.0779 19.2874 18.828L8.39143 29.724Z" fill="#2A6CEA"/>
</g>
<defs>
<clipPath id="clip0_40_252">
<rect width="32" height="32" fill="white"/>
</clipPath>
</defs>
</svg>
